<?xml version="1.0" encoding="UTF-8"?>
<svg version="1.1" xmlns="http://www.w3.org/2000/svg" width="430" height="430">
<path d="M0 0 C0.44653931 1.21115479 0.44653931 1.21115479 0.90209961 2.44677734 C2.00632771 5.44011742 3.11157937 8.43307695 4.2175293 11.42578125 C4.69613104 12.72152772 5.17432357 14.01742541 5.65209961 15.31347656 C6.33860592 17.17552692 7.02670252 19.03699072 7.71484375 20.8984375 C8.12855225 22.01911621 8.54226074 23.13979492 8.96850586 24.29443359 C9.91694203 26.91658915 9.91694203 26.91658915 11 29 C18.59 29 26.18 29 34 29 C34.33 27.02 34.66 25.04 35 23 C35.4097319 21.53992488 35.85446529 20.0890439 36.33984375 18.65234375 C36.7275293 17.49702148 36.7275293 17.49702148 37.12304688 16.31835938 C37.52620117 15.13983398 37.52620117 15.13983398 37.9375 13.9375 C38.20240234 13.14794922 38.46730469 12.35839844 38.74023438 11.54492188 C40.05606211 7.64967996 41.41839433 3.79738174 43 0 C52.15564771 -0.34915606 60.95960217 0.72958023 70 2 C70.78473462 6.13221477 71.10915836 9.99998469 71.0625 14.203125 C71.05476563 15.3478125 71.04703125 16.4925 71.0390625 17.671875 C71.01972656 19.44304688 71.01972656 19.44304688 71 21.25 C70.97457619 23.60933 70.95351411 25.96871237 70.9375 28.328125 C70.92009766 29.88901855 70.92009766 29.88901855 70.90234375 31.48144531 C70.82657659 33.99667206 70.82657659 33.99667206 72 36 C74.39181393 36.9201553 76.746109 37.73634215 79.1875 38.5 C79.84814453 38.71269531 80.50878906 38.92539062 81.18945312 39.14453125 C82.49698145 39.56531529 83.80540267 39.9833359 85.11474609 40.3984375 C87.75179894 41.23989026 90.37608857 42.11856164 93 43 C93.22042969 42.48050781 93.44085938 41.96101563 93.66796875 41.42578125 C95.52251863 38.04843381 97.90047379 35.18251262 100.3125 32.1875 C101.26851347 30.99475938 102.22294562 29.80074956 103.17578125 28.60546875 C103.88081787 27.7225415 103.88081787 27.7225415 104.60009766 26.82177734 C106.02886091 24.96244156 107.34778903 23.05076494 108.66796875 21.11328125 C111 18 111 18 114 17 C116.36010742 17.89624023 116.36010742 17.89624023 119.10546875 19.30859375 C120.08837891 19.80810547 121.07128906 20.30761719 122.08398438 20.82226562 C123.62022461 21.62180664 123.62022461 21.62180664 125.1875 22.4375 C126.74114258 23.23124023 126.74114258 23.23124023 128.32617188 24.04101562 C130.88880966 25.35185799 133.44633287 26.67178957 136 28 C135.25440992 35.56241366 132.72288871 42.54017696 130.3515625 49.7265625 C130.03703125 50.7165625 129.7225 51.7065625 129.3984375 52.7265625 C129.10630371 53.61939941 128.81416992 54.51223633 128.51318359 55.43212891 C127.9258923 58.37082054 128.06662358 60.15894352 129 63 C130.9283212 65.35188101 133.34812784 67.0826129 135.75 68.9375 C136.68199219 69.71577148 136.68199219 69.71577148 137.6328125 70.50976562 C138.54933594 71.2300293 138.54933594 71.2300293 139.484375 71.96484375 C140.03834961 72.4043335 140.59232422 72.84382324 141.16308594 73.29663086 C143.079974 74.24207203 143.079974 74.24207203 145.43823242 73.296875 C147.88220696 72.05963182 150.19255638 70.75442325 152.50390625 69.28515625 C153.73850586 68.50301758 153.73850586 68.50301758 154.99804688 67.70507812 C155.84431641 67.16302734 156.69058594 66.62097656 157.5625 66.0625 C158.41263672 65.52431641 159.26277344 64.98613281 160.13867188 64.43164062 C164.74764933 61.52720218 164.74764933 61.52720218 169.12329102 58.29223633 C169.74260498 57.86579834 170.36191895 57.43936035 171 57 C175.63270662 57.92050522 178.46734385 61.07854578 181.625 64.375 C182.10195313 64.85710937 182.57890625 65.33921875 183.0703125 65.8359375 C184.40492578 67.20020885 185.70365984 68.59931048 187 70 C187.62648438 70.65226562 188.25296875 71.30453125 188.8984375 71.9765625 C190 74 190 74 190.1171875 76.68359375 C188.46152262 81.59848706 185.39141891 85.08868299 182.125 89.0625 C176.45786429 95.64102666 176.45786429 95.64102666 172 103 C172.46760415 105.90875655 173.45859046 108.00743337 175.06640625 110.453125 C175.46923828 111.071875 175.87207031 111.690625 176.28710938 112.328125 C176.70798828 112.96234375 177.12886719 113.5965625 177.5625 114.25 C177.98724609 114.8996875 178.41199219 115.549375 178.84960938 116.21875 C179.8947306 117.81578918 180.94669837 119.4083442 182 121 C189.20296473 119.84020059 196.22456644 118.26496138 203.25195312 116.32128906 C207.5990007 115.17034403 211.51233617 114.82560892 216 115 C217.29493195 117.39411837 218.58602172 119.7901788 219.875 122.1875 C220.42220703 123.19780273 220.42220703 123.19780273 220.98046875 124.22851562 C225.94487096 133.48035611 225.94487096 133.48035611 226.08984375 137.4765625 C224.36853007 141.46211317 221.14416669 143.09608786 217.5625 145.375 C216.10524422 146.33689951 214.64821296 147.29913925 213.19140625 148.26171875 C212.47742676 148.72626465 211.76344727 149.19081055 211.02783203 149.66943359 C208.31126023 151.4519181 205.6535508 153.31283318 203 155.1875 C202.21625 155.73792969 201.4325 156.28835937 200.625 156.85546875 C200.08875 157.23316406 199.5525 157.61085937 199 158 C199.78087435 162.80654698 200.65838705 167.59055539 201.5625 172.375 C201.70107422 173.11105469 201.83964844 173.84710938 201.98242188 174.60546875 C202.32105934 176.40375048 202.66045191 178.20188999 203 180 C203.66 179.67 204.32 179.34 205 179 C211.53333333 178.76666667 211.53333333 178.76666667 214 180 C217.7243982 180.23370228 221.44257635 180.39427067 225.171875 180.51757812 C229.72322552 180.71595113 233.83549754 180.96358449 238 183 C239.12943674 186.04595368 239.11638845 188.98118627 239.09765625 192.203125 C239.09443359 193.1828125 239.09121094 194.1625 239.08789062 195.171875 C239.07951172 196.18765625 239.07113281 197.2034375 239.0625 198.25 C239.05798828 199.28125 239.05347656 200.3125 239.04882812 201.375 C239.03706088 203.91672573 239.02062011 206.45833319 239 209 C238.32235596 209.19988525 237.64471191 209.39977051 236.9465332 209.60571289 C235.60594849 210.00391235 235.60594849 210.00391235 234.23828125 210.41015625 C233.35438721 210.6719165 232.47049316 210.93367676 231.55981445 211.20336914 C229.39671564 211.87653952 227.29559653 212.61141961 225.1875 213.4375 C210.77825798 219 210.77825798 219 206 219 C206.0309375 220.918125 206.0309375 220.918125 206.0625 222.875 C206.07647174 227.28308391 205.6750368 231.56359858 205.12109375 235.93359375 C204.82391299 238.06346961 204.82391299 238.06346961 206 240 C208.08060761 241.06093015 208.08060761 241.06093015 210.62890625 242.0234375 C211.58216797 242.405 212.53542969 242.7865625 213.51757812 243.1796875 C214.52240234 243.57414063 215.52722656 243.96859375 216.5625 244.375 C220.3874423 245.88783149 224.20111968 247.42279549 228 249 C229.21985596 249.49741699 229.21985596 249.49741699 230.46435547 250.00488281 C235.67891672 252.32065539 235.67891672 252.32065539 237.11328125 255.35546875 C236.97397174 258.60762523 236.23277021 261.22839886 235.1875 264.3125 C233.56110976 269.17992783 232.20156713 274.01431194 231 279 C227.33335046 279.02932237 223.6667316 279.04690637 220 279.0625 C218.97003906 279.07087891 217.94007813 279.07925781 216.87890625 279.08789062 C211.13841312 279.10617245 205.681409 278.79116112 200 278 C198.33369491 277.96528531 196.66585346 277.94794208 195 278 C193.59908866 280.73753611 192.23407321 283.49148507 190.875 286.25 C190.47667969 287.02730469 190.07835937 287.80460937 189.66796875 288.60546875 C189.11689453 289.73662109 189.11689453 289.73662109 188.5546875 290.890625 C188.03624268 291.92751465 188.03624268 291.92751465 187.50732422 292.98535156 C186.79954685 295.02391285 186.79954685 295.02391285 187.703125 297.05859375 C189.04565114 299.0683392 190.40734012 300.5490322 192.1953125 302.171875 C192.8255835 302.75050293 193.45585449 303.32913086 194.10522461 303.92529297 C194.77175049 304.52744629 195.43827637 305.12959961 196.125 305.75 C197.48406751 306.99631212 198.84214773 308.24370175 200.19921875 309.4921875 C200.85325684 310.09256836 201.50729492 310.69294922 202.18115234 311.31152344 C205.55324033 314.4419074 208.79346613 317.70126547 212 321 C210.29816715 326.11575056 207.32246469 330.35015815 204.375 334.8125 C203.6015625 335.99489258 203.6015625 335.99489258 202.8125 337.20117188 C201.54558583 339.1367352 200.27467036 341.06953942 199 343 C190.60334406 342.53957731 183.39017633 338.28677507 175.89648438 334.7734375 C174.81302734 334.2784375 173.72957031 333.7834375 172.61328125 333.2734375 C171.63141846 332.81372559 170.64955566 332.35401367 169.63793945 331.88037109 C166.79627189 330.93200893 165.71005303 330.81090989 163 332 C160.92131081 333.86938669 159.06509138 335.69905493 157.1875 337.75 C156.67251953 338.2759375 156.15753906 338.801875 155.62695312 339.34375 C153.94825968 341.08977578 153.94825968 341.08977578 152 344 C152.33748573 347.54002507 153.47866038 350.28655338 155.14453125 353.3984375 C155.57443359 354.20796875 156.00433594 355.0175 156.44726562 355.8515625 C156.89779297 356.68429687 157.34832031 357.51703125 157.8125 358.375 C158.25142578 359.2 158.69035156 360.025 159.14257812 360.875 C161.1256174 364.58767383 163.14526299 368.25037955 165.32421875 371.8515625 C167 375 167 375 167 379 C164.875 380.9296875 164.875 380.9296875 162 382.875 C157.75938303 385.78394317 153.70717945 388.77912724 149.75390625 392.06640625 C148 393 148 393 146.10546875 392.94140625 C143.10917176 391.60168904 141.13050574 389.62627828 138.75 387.375 C137.77535034 386.46288859 136.80008558 385.55143404 135.82421875 384.640625 C134.42623047 383.33351563 134.42623047 383.33351563 133 382 C130.89320273 380.14126676 128.77105625 378.30352077 126.63671875 376.4765625 C125 375 125 375 122.875 372.5 C121.0439194 370.68716508 121.0439194 370.68716508 118.27734375 371.1953125 C114.62418515 372.09227397 111.92268938 373.46531163 108.6875 375.375 C107.63949219 375.98085938 106.59148437 376.58671875 105.51171875 377.2109375 C102.73324676 378.81818807 102.73324676 378.81818807 102 382 C102.25959845 384.46334163 102.58801627 386.85413842 102.99609375 389.29296875 C103.16468651 390.35201164 103.16468651 390.35201164 103.33668518 391.43244934 C103.69690462 393.68527376 104.06706724 395.93633472 104.4375 398.1875 C104.68359969 399.71538912 104.92905028 401.24338293 105.17382812 402.77148438 C105.7750293 406.5155791 106.38515244 410.25812308 107 414 C102.77759098 416.61302579 98.63217477 418.4568443 94 420.1875 C92.95199219 420.59645508 92.95199219 420.59645508 91.8828125 421.01367188 C84.45768249 423.80860289 84.45768249 423.80860289 81 423 C79.04296875 420.68359375 79.04296875 420.68359375 77.1875 417.4375 C76.85129639 416.86483398 76.51509277 416.29216797 76.16870117 415.70214844 C74.29487644 412.46700548 72.56418779 409.1706733 70.8828125 405.83203125 C70.53581299 405.15148682 70.18881348 404.47094238 69.83129883 403.76977539 C69.16216736 402.44321785 68.51029518 401.10778516 67.87768555 399.76342773 C66.51317752 397.03404983 65.63110084 395.27888435 62.78125 394.01953125 C59.02005154 393.99311834 55.40633594 394.4024396 51.6875 394.9375 C50.57665039 395.08735352 50.57665039 395.08735352 49.44335938 395.24023438 C47.62790363 395.48619935 45.81379929 395.74210374 44 396 C43.91363281 396.77859375 43.82726562 397.5571875 43.73828125 398.359375 C42.37888956 409.18462255 39.74782613 419.44256276 37 430 C28.42 430 19.84 430 11 430 C9.39337395 425.98343488 8.37166726 422.57380718 7.4921875 418.38671875 C7.22792969 417.13955078 6.96367187 415.89238281 6.69140625 414.60742188 C6.41917321 413.30080158 6.14703903 411.9941607 5.875 410.6875 C5.59546373 409.3612413 5.31551989 408.03506842 5.03515625 406.70898438 C4.35275848 403.47347773 3.67452631 400.23715518 3 397 C1.09972263 396.51134107 -0.80150713 396.02638485 -2.703125 395.54296875 C-3.76176758 395.27250732 -4.82041016 395.0020459 -5.91113281 394.72338867 C-9.6136624 393.85628504 -13.2182945 393.36362553 -17 393 C-17.27328125 393.71784668 -17.5465625 394.43569336 -17.828125 395.17529297 C-18.98471074 397.96314651 -20.30174851 400.5484577 -21.75 403.1953125 C-22.2759375 404.15824219 -22.801875 405.12117188 -23.34375 406.11328125 C-23.8903125 407.10714844 -24.436875 408.10101563 -25 409.125 C-25.5465625 410.12660156 -26.093125 411.12820313 -26.65625 412.16015625 C-30.71851504 419.57777256 -30.71851504 419.57777256 -33 423 C-41.86524507 421.36541035 -50.65536063 419.47568462 -59 416 C-58.53737149 407.30745384 -57.80511936 398.81970994 -56.40234375 390.21875 C-55.73844895 385.11667345 -55.73844895 385.11667345 -56 380 C-58.14389444 378.01619138 -59.69849514 376.8639854 -62.1875 375.5 C-62.76564453 375.14164062 -63.34378906 374.78328125 -63.93945312 374.4140625 C-66.63690851 372.84130885 -68.56223599 371.98294426 -71.70703125 372.10546875 C-74.15970207 373.06230285 -75.58115329 374.02012274 -77.5 375.8125 C-78.17675781 376.42996094 -78.85351562 377.04742187 -79.55078125 377.68359375 C-80.88805185 378.94834888 -82.22385026 380.21469627 -83.55224609 381.48876953 C-84.68389404 382.57366332 -85.81890608 383.6550575 -86.95703125 384.7331543 C-88.09476971 385.81262539 -89.22400395 386.90114398 -90.34375 387.99926758 C-92.60269039 390.1438182 -94.67696836 391.85471065 -97.52734375 393.13671875 C-101.23245438 392.93185481 -103.25847408 390.84003807 -105.875 388.4375 C-106.65955566 387.74938232 -106.65955566 387.74938232 -107.45996094 387.04736328 C-108.98310508 385.70931365 -110.49185991 384.35493852 -112 383 C-113.41322908 381.78764796 -114.82913101 380.57838905 -116.25 379.375 C-117.1575 378.59125 -118.065 377.8075 -119 377 C-117.38997967 371.38322454 -114.75490257 366.49124762 -112 361.375 C-111.1039009 359.69545427 -110.20805828 358.01577167 -109.3125 356.3359375 C-108.91675781 355.59907715 -108.52101563 354.8622168 -108.11328125 354.10302734 C-107.74589844 353.40902832 -107.37851563 352.7150293 -107 352 C-106.61884033 351.29254639 -106.23768066 350.58509277 -105.8449707 349.85620117 C-104.83103281 348.02899927 -104.83103281 348.02899927 -105.16796875 345.96484375 C-106.17861081 343.57821016 -107.41565743 342.32124268 -109.3125 340.5625 C-112.13501668 337.86775156 -114.63769662 335.11824046 -117 332 C-124.31301024 334.28943339 -131.25515092 337.17923801 -138.24609375 340.30273438 C-139.44685547 340.82383789 -139.44685547 340.82383789 -140.671875 341.35546875 C-141.3844043 341.67153076 -142.09693359 341.98759277 -142.83105469 342.31323242 C-145.40743738 343.12900961 -147.313959 343.329276 -150 343 C-151.52978516 341.71826172 -151.52978516 341.71826172 -152.7890625 339.9296875 C-153.25570312 339.28 -153.72234375 338.6303125 -154.203125 337.9609375 C-154.67234375 337.27257812 -155.1415625 336.58421875 -155.625 335.875 C-156.10195312 335.20984375 -156.57890625 334.5446875 -157.0703125 333.859375 C-159.7566316 330.05375627 -162.03289986 326.23784662 -164 322 C-158.94655949 315.66845197 -153.11252601 310.2874207 -147.06811523 304.92529297 C-146.42946533 304.34666504 -145.79081543 303.76803711 -145.1328125 303.171875 C-144.55418457 302.6572168 -143.97555664 302.14255859 -143.37939453 301.61230469 C-141.75327446 299.71161496 -141.29144453 298.47502741 -141 296 C-141.79291006 293.50305413 -142.63488884 291.25502991 -143.6875 288.875 C-143.94466797 288.24207031 -144.20183594 287.60914063 -144.46679688 286.95703125 C-145.99360968 283.41368838 -145.99360968 283.41368838 -148.72167969 280.79003906 C-151.72399993 279.74894302 -154.02889954 279.96897382 -157.19140625 280.2421875 C-158.38314453 280.33886719 -159.57488281 280.43554688 -160.80273438 280.53515625 C-162.04345703 280.64730469 -163.28417969 280.75945312 -164.5625 280.875 C-167.02208381 281.0813452 -169.48171705 281.28710242 -171.94140625 281.4921875 C-173.03138916 281.58870605 -174.12137207 281.68522461 -175.24438477 281.78466797 C-178 282 -178 282 -181 282 C-181.79276039 279.47950607 -182.58423465 276.95861986 -183.375 274.4375 C-183.70757812 273.38079102 -183.70757812 273.38079102 -184.046875 272.30273438 C-184.70459683 270.20382794 -185.35377491 268.10247192 -186 266 C-186.38414062 264.75347656 -186.76828125 263.50695312 -187.1640625 262.22265625 C-188 259 -188 259 -188 255 C-184.69180248 253.38685212 -181.3777091 251.78618232 -178.0625 250.1875 C-177.13630859 249.73568359 -176.21011719 249.28386719 -175.25585938 248.81835938 C-169.59189342 246.095681 -164.00589101 243.85412635 -158 242 C-158.15919922 241.41428223 -158.31839844 240.82856445 -158.48242188 240.22509766 C-159.38940428 236.32592896 -159.40152821 232.30067057 -159.60546875 228.3125 C-159.77044485 224.53096669 -159.77044485 224.53096669 -161 221 C-163.39319983 220.11496761 -165.74417198 219.34420542 -168.1875 218.625 C-169.25387695 218.30172729 -169.25387695 218.30172729 -170.34179688 217.97192383 C-177.20503434 215.9036656 -184.09694237 213.93069893 -191 212 C-191.05845196 208.62507371 -191.09374742 205.25027913 -191.125 201.875 C-191.14175781 200.92367187 -191.15851563 199.97234375 -191.17578125 198.9921875 C-191.24229589 189.41407933 -191.24229589 189.41407933 -189 185 C-185.5840319 182.12118659 -180.70871548 182.58528045 -176.4375 182.4375 C-170.63593276 182.2731699 -170.63593276 182.2731699 -165 181 C-163.60560336 180.93334624 -162.20830125 180.91461801 -160.8125 180.9375 C-159.554375 180.958125 -158.29625 180.97875 -157 181 C-156.70694479 179.56278243 -156.41567065 178.12520173 -156.125 176.6875 C-155.96257812 175.88699219 -155.80015625 175.08648437 -155.6328125 174.26171875 C-154.71202293 169.51567375 -153.85814721 164.75771552 -153 160 C-154.1281311 159.30438965 -154.1281311 159.30438965 -155.27905273 158.59472656 C-158.06763284 156.86732193 -160.84900684 155.12935802 -163.6262207 153.38378906 C-164.82924093 152.63074608 -166.03496566 151.88200574 -167.2434082 151.13769531 C-168.98077934 150.06656637 -170.70781216 148.98030145 -172.43359375 147.890625 C-173.47572021 147.24125977 -174.51784668 146.59189453 -175.59155273 145.92285156 C-178 144 -178 144 -178.95385742 142.07983398 C-179.05742889 137.41144605 -176.61712184 133.05689312 -174.875 128.8125 C-174.483125 127.78962891 -174.09125 126.76675781 -173.6875 125.71289062 C-173.09582031 124.25592773 -173.09582031 124.25592773 -172.4921875 122.76953125 C-172.13495605 121.87854736 -171.77772461 120.98756348 -171.40966797 120.06958008 C-170 118 -170 118 -167.59887695 117.15771484 C-165.1395013 117.00846574 -163.30768966 117.13300432 -160.92578125 117.70703125 C-160.17989746 117.88073242 -159.43401367 118.05443359 -158.66552734 118.23339844 C-157.50077881 118.52005371 -157.50077881 118.52005371 -156.3125 118.8125 C-154.70721054 119.18956617 -153.10174255 119.56587318 -151.49609375 119.94140625 C-150.72507324 120.12461426 -149.95405273 120.30782227 -149.15966797 120.49658203 C-145.12691691 121.43661512 -141.06483738 122.21325728 -137 123 C-135.2935838 120.61581568 -133.61043439 118.22000264 -131.9375 115.8125 C-131.45216797 115.13896484 -130.96683594 114.46542969 -130.46679688 113.77148438 C-130.01240234 113.11083984 -129.55800781 112.45019531 -129.08984375 111.76953125 C-128.66566162 111.16729736 -128.24147949 110.56506348 -127.80444336 109.94458008 C-126.68163096 107.23040685 -127.10013964 105.7686575 -128 103 C-129.34369861 100.77290252 -129.34369861 100.77290252 -131.08984375 98.6796875 C-131.70923828 97.89722656 -132.32863281 97.11476563 -132.96679688 96.30859375 C-133.61712891 95.50550781 -134.26746094 94.70242187 -134.9375 93.875 C-136.21813651 92.26877794 -137.49811249 90.66202896 -138.77734375 89.0546875 C-139.34702881 88.34812012 -139.91671387 87.64155273 -140.50366211 86.91357422 C-144.02966767 82.40438323 -144.02966767 82.40438323 -143.8203125 79.55078125 C-142.91387358 76.73218785 -141.8905077 75.33406089 -139.875 73.1875 C-137.88921069 71.06392123 -135.98946583 68.98617101 -134.2265625 66.671875 C-133.65679687 65.93453125 -133.08703125 65.1971875 -132.5 64.4375 C-131.9946875 63.75558594 -131.489375 63.07367188 -130.96875 62.37109375 C-129 61 -129 61 -125.88671875 60.9140625 C-120.74589352 61.95053018 -116.6029282 65.06721354 -112.3125 67.9375 C-110.64287323 69.0313934 -108.97233314 70.12389434 -107.30078125 71.21484375 C-106.57028564 71.70073975 -105.83979004 72.18663574 -105.0871582 72.68725586 C-103.10701524 73.93269143 -101.10987476 74.9934133 -99 76 C-96.67431755 74.28649719 -94.36552474 72.55599492 -92.0625 70.8125 C-91.40314453 70.32974609 -90.74378906 69.84699219 -90.06445312 69.34960938 C-89.12182617 68.6293457 -89.12182617 68.6293457 -88.16015625 67.89453125 C-87.57886963 67.45987549 -86.99758301 67.02521973 -86.39868164 66.57739258 C-84.4682134 64.4002665 -84.21470567 62.89115919 -84 60 C-84.58136066 57.13423408 -84.58136066 57.13423408 -85.65234375 54.18359375 C-86.01650391 53.08982422 -86.38066406 51.99605469 -86.75585938 50.86914062 C-87.34077148 49.17047852 -87.34077148 49.17047852 -87.9375 47.4375 C-88.70180902 45.1879561 -89.46114488 42.9367147 -90.21484375 40.68359375 C-90.72712524 39.19170532 -90.72712524 39.19170532 -91.24975586 37.66967773 C-92 35 -92 35 -92 31 C-88.75418468 29.17992918 -85.50267099 27.37028615 -82.25 25.5625 C-81.32960938 25.04623047 -80.40921875 24.52996094 -79.4609375 23.99804688 C-78.57148437 23.50498047 -77.68203125 23.01191406 -76.765625 22.50390625 C-75.94868164 22.04830322 -75.13173828 21.5927002 -74.29003906 21.12329102 C-72.17748935 20.08706061 -70.29777301 19.4637072 -68 19 C-61.28639401 26.76260692 -54.88720344 34.5824799 -49 43 C-47.37288407 42.59167433 -45.74843513 42.17272272 -44.125 41.75 C-43.22007812 41.51796875 -42.31515625 41.2859375 -41.3828125 41.046875 C-36.81068517 39.63194414 -32.42207604 37.82401057 -28 36 C-27.98018066 35.14245117 -27.96036133 34.28490234 -27.93994141 33.40136719 C-27.86170479 30.21052358 -27.77500657 27.0200526 -27.68261719 23.82958984 C-27.64440662 22.45044757 -27.60953998 21.07120833 -27.578125 19.69189453 C-27.53230376 17.70583033 -27.47333737 15.72008321 -27.4140625 13.734375 C-27.3826416 12.54038086 -27.3512207 11.34638672 -27.31884766 10.11621094 C-27.01596428 7.15602457 -26.69915169 5.41838068 -25 3 C-17.07434326 -0.13723913 -8.41124688 -0.05351801 0 0 Z M42 95 C41.62833272 102.15141489 41.32859282 109.30327454 41.07836914 116.45996094 C40.98484274 118.89326834 40.87494768 121.32600449 40.74829102 123.7578125 C40.56887016 127.25759141 40.4487416 130.75521689 40.33984375 134.2578125 C40.2715184 135.34240753 40.20319305 136.42700256 40.13279724 137.54446411 C39.93602085 143.27229393 39.93602085 143.27229393 42.84848022 147.93867493 C45.16579284 149.50579117 47.4872646 150.77517617 50 152 C51.51158691 152.93573853 51.51158691 152.93573853 53.05371094 153.89038086 C55.9439381 155.58792867 58.84403393 157.26703821 61.75 158.9375 C62.76449219 159.53884766 63.77898437 160.14019531 64.82421875 160.75976562 C65.80519531 161.32244141 66.78617187 161.88511719 67.796875 162.46484375 C68.67698242 162.976521 69.55708984 163.48819824 70.46386719 164.01538086 C73.55546239 165.21565073 74.87793102 165.04313259 78 164 C80.55951419 162.77036059 80.55951419 162.77036059 83.140625 161.19140625 C84.12160156 160.61342285 85.10257812 160.03543945 86.11328125 159.43994141 C87.14839844 158.82038574 88.18351562 158.20083008 89.25 157.5625 C90.31089844 156.93520996 91.37179687 156.30791992 92.46484375 155.66162109 C94.61825206 154.38782423 96.76995739 153.11114387 98.91992188 151.83154297 C102.52448847 149.68811727 106.1396609 147.56321357 109.75683594 145.44116211 C112.84049306 143.6318461 115.92029002 141.81602464 119 140 C110.42850248 121.11286471 84.73088074 107.60937236 66.375 100.1875 C58.49639025 97.3084031 50.43287201 94.89086245 42 95 Z M-60.5 129.25 C-61.00499023 129.74540283 -61.50998047 130.24080566 -62.03027344 130.7512207 C-64.88487993 133.63247406 -66.98050339 136.50042108 -69 140 C-61.74198399 144.32597508 -54.4755872 148.63706993 -47.19502258 152.92498779 C-43.73106267 154.96790843 -40.28592155 157.03811352 -36.85546875 159.13671875 C-35.46651668 159.9667667 -34.0772309 160.79625668 -32.6875 161.625 C-32.08035156 162.00841553 -31.47320312 162.39183105 -30.84765625 162.78686523 C-28.08008375 164.4079961 -26.44270992 165.06762754 -23.23828125 164.578125 C-18.54030826 162.28864238 -14.01664975 159.75183814 -9.5 157.125 C-8.57574219 156.59519531 -7.65148437 156.06539062 -6.69921875 155.51953125 C-4.91422949 154.49041727 -3.13525682 153.45077738 -1.36328125 152.39941406 C0.06307873 151.55479677 1.50051899 150.72801139 2.95703125 149.93652344 C4.80213899 148.93283069 4.80213899 148.93283069 7 147 C8.43398729 141.61097466 8.0355664 136.09470563 7.87890625 130.5703125 C7.85529526 129.57998016 7.83168427 128.58964783 7.80735779 127.56930542 C7.7310767 124.42104475 7.64690012 121.27305243 7.5625 118.125 C7.5092437 115.98438792 7.45650356 113.84376293 7.40429688 111.703125 C7.27550997 106.4685857 7.14024828 101.23424408 7 96 C5.75057617 95.98557861 4.50115234 95.97115723 3.21386719 95.95629883 C2.51106628 95.9481868 1.80826538 95.94007477 1.08416748 95.93171692 C-21.60816426 96.67518036 -45.08844563 114.09685689 -60.5 129.25 Z M-88 168 C-97.33377307 199.21095659 -99.27787972 227.97468661 -88 259 C-79.28980219 254.7994184 -70.77559159 250.44262149 -62.53833008 245.36865234 C-59.39159444 243.43046078 -56.23297891 241.5564292 -52.984375 239.79296875 C-52.33678223 239.43847656 -51.68918945 239.08398438 -51.02197266 238.71875 C-49.23048301 237.74484366 -47.43185122 236.78410854 -45.6328125 235.82421875 C-42.95736973 234.32856686 -42.95736973 234.32856686 -42.34594727 232.36645508 C-41.85630578 229.01705855 -41.83732091 225.68984129 -41.83203125 222.3125 C-41.82870285 221.57298096 -41.82537445 220.83346191 -41.82194519 220.0715332 C-41.81689384 218.5115623 -41.81453631 216.95158064 -41.81469727 215.39160156 C-41.81250761 213.00828274 -41.79432472 210.6254247 -41.77539062 208.2421875 C-41.77245694 206.72395991 -41.77047198 205.20573013 -41.76953125 203.6875 C-41.76234573 202.97698486 -41.75516022 202.26646973 -41.74775696 201.53442383 C-41.74072356 196.41213004 -41.74072356 196.41213004 -44 192 C-46.62729163 190.10383415 -46.62729163 190.10383415 -49.828125 188.390625 C-50.41358093 188.06012146 -50.99903687 187.72961792 -51.60223389 187.38909912 C-53.47926933 186.33244695 -55.36423969 185.29098609 -57.25 184.25 C-58.47191981 183.56611384 -59.69327975 182.88122632 -60.9140625 182.1953125 C-63.35920283 180.8225192 -65.80832936 179.45721581 -68.25976562 178.09570312 C-70.84564195 176.65463533 -73.41461765 175.18772999 -75.97460938 173.70117188 C-76.61581726 173.3297406 -77.25702515 172.95830933 -77.91766357 172.57562256 C-79.14604244 171.86230982 -80.3724166 171.14553062 -81.59649658 170.42486572 C-84.59937765 168.57097268 -84.59937765 168.57097268 -88 168 Z M135 168 C131.24871632 170.12920119 127.49923402 172.26153408 123.7512207 174.39648438 C122.48247686 175.11865062 121.2132882 175.84003606 119.94360352 176.56054688 C105.12517845 184.16187819 105.12517845 184.16187819 92 194 C91.77549999 196.82190852 91.6718392 199.54276681 91.6640625 202.3671875 C91.6574057 203.19832062 91.6507489 204.02945374 91.64389038 204.88577271 C91.63375578 206.6459939 91.62907361 208.40625357 91.62939453 210.16650391 C91.625028 212.85774294 91.58873747 215.54733333 91.55078125 218.23828125 C91.54491188 219.94791105 91.54094329 221.65754866 91.5390625 223.3671875 C91.52469147 224.17147186 91.51032043 224.97575623 91.49551392 225.80441284 C91.52343907 229.22641018 91.63237114 231.48428479 93.64794922 234.31176758 C96.38551379 236.27671038 99.15500602 237.99225811 102.09375 239.64453125 C102.68111938 239.97740646 103.26848877 240.31028168 103.87365723 240.65324402 C105.74569474 241.71251195 107.62260786 242.76275715 109.5 243.8125 C111.34083317 244.84966774 113.18061175 245.88868679 115.02026367 246.927948 C116.23188564 247.61172602 117.44428437 248.29412957 118.6574707 248.97512817 C123.71809563 251.82014203 128.71107664 254.76964949 133.68945312 257.7565918 C135.85621763 259.15796114 135.85621763 259.15796114 138 259 C147.74901417 231.51607709 150.81347087 198.18599524 138 171 C137.02275104 169.97775518 136.02538674 168.97395176 135 168 Z M-3.125 195.4375 C-8.26248051 202.45872337 -10.61115148 210.37172124 -9.6640625 219.09375 C-7.05230835 231.01563951 -1.08629222 239.53891688 8.94921875 246.31640625 C16.65233993 250.52744583 26.54048048 250.1615999 34.9375 248.375 C43.66500486 245.3203733 50.33385505 238.8939912 55.02734375 231.0546875 C59.03903099 222.5801996 59.75803869 211.96073205 57.08984375 202.9140625 C55.89855876 200.42423857 54.6015079 198.2455005 53 196 C52.33097656 195.03707031 52.33097656 195.03707031 51.6484375 194.0546875 C46.52107201 187.43780802 39.28732429 182.45391654 31 181 C16.26370653 179.86833139 6.52603753 184.36719225 -3.125 195.4375 Z M-33.6953125 266.18359375 C-34.56580734 266.68047447 -34.56580734 266.68047447 -35.45388794 267.18739319 C-37.34563522 268.26837588 -39.23540451 269.3527609 -41.125 270.4375 C-42.07940979 270.98398193 -42.07940979 270.98398193 -43.05310059 271.54150391 C-52.43717944 276.91470817 -61.77724442 282.35341495 -71 288 C-62.97253512 306.21777005 -39.42654977 320.46977753 -22 328 C-17.07111154 329.89772083 -12.06140558 331.49159508 -7 333 C-6.17113281 333.2475 -5.34226562 333.495 -4.48828125 333.75 C-0.565364 334.82600016 2.95280869 335.06243914 7 335 C7.25413339 327.86576685 7.42890117 320.73270422 7.54931641 313.5949707 C7.59952198 311.16874584 7.66770447 308.74282231 7.75439453 306.31762695 C7.87611404 302.82427712 7.93248984 299.33493121 7.9765625 295.83984375 C8.02817535 294.76041 8.07978821 293.68097626 8.13296509 292.5688324 C8.13629844 288.06500887 8.13731257 285.18277329 4.92488098 281.8419342 C2.35993881 280.01832169 -0.22538605 278.48140649 -3 277 C-4.09642822 276.31365479 -5.19285645 275.62730957 -6.32250977 274.92016602 C-7.26924561 274.37030029 -8.21598145 273.82043457 -9.19140625 273.25390625 C-10.76051758 272.3402832 -10.76051758 272.3402832 -12.36132812 271.40820312 C-13.41771484 270.79912109 -14.47410156 270.19003906 -15.5625 269.5625 C-16.65369141 268.92634766 -17.74488281 268.29019531 -18.86914062 267.63476562 C-26.2353393 262.8396751 -26.2353393 262.8396751 -33.6953125 266.18359375 Z M66.31054688 269.07910156 C64.5373276 270.10343697 62.7610346 271.12227151 60.984375 272.140625 C59.84484375 272.79804688 58.7053125 273.45546875 57.53125 274.1328125 C56.49548828 274.72980957 55.45972656 275.32680664 54.39257812 275.94189453 C53.27302734 276.62106934 52.15347656 277.30024414 51 278 C50.21476456 278.38421112 49.42952911 278.76842224 48.62049866 279.16427612 C43.75556806 281.79593258 43.75556806 281.79593258 41.22103882 286.50094604 C40.95644277 289.62011931 40.98714679 292.61466759 41.12109375 295.7421875 C41.13382828 296.86569611 41.14656281 297.98920471 41.15968323 299.14675903 C41.20995104 302.72506203 41.32284171 306.29823818 41.4375 309.875 C41.4826547 312.3046141 41.52371753 314.73430794 41.56054688 317.1640625 C41.65962039 323.11111561 41.81008882 329.05519164 42 335 C48.13311533 335.09861087 52.92058121 334.52249124 58.75 332.625 C59.5642041 332.36170898 60.3784082 332.09841797 61.21728516 331.82714844 C76.3146019 326.71107587 89.92631598 319.40374155 102 309 C102.90105469 308.24847656 103.80210937 307.49695313 104.73046875 306.72265625 C110.41391486 301.83024954 116.10999185 296.47166521 120 290 C118.6980506 286.09415179 117.28799721 285.73442973 113.7421875 283.7421875 C112.64769287 283.12029541 111.55319824 282.49840332 110.42553711 281.85766602 C109.24208635 281.19666702 108.05857288 280.5357803 106.875 279.875 C105.08888119 278.86516259 103.30455273 277.85221225 101.52030945 276.83906555 C100.3388693 276.16848714 99.15683239 275.49895901 97.97419739 274.83049011 C92.62104231 271.80122697 87.34782645 268.65117745 82.10302734 265.43896484 C75.60777875 261.48373597 72.60562073 265.4394416 66.31054688 269.07910156 Z " fill="#000200" transform="translate(191,0)"/>
<path d="M0 0 C0 4.61538462 0 4.61538462 -1 7 C-3.5625 8.25 -3.5625 8.25 -6 9 C-4.47291037 5.56404834 -2.40072955 2.88087546 0 0 Z " fill="#011301" transform="translate(298,24)"/>
<path d="M0 0 C0.99 0.66 1.98 1.32 3 2 C-2.75 5.875 -2.75 5.875 -5 7 C-3.70700306 4.11562221 -2.34058637 2.12780579 0 0 Z " fill="#001300" transform="translate(304,17)"/>
</svg>
